<?xml version="1.0" standalone="no"?>
<!DOCTYPE svg PUBLIC "-//W3C//DTD SVG 1.1//EN" "http://www.w3.org/Graphics/SVG/1.1/DTD/svg11.dtd">
<svg xmlns="http://www.w3.org/2000/svg">
<metadata>Copyright (C) 2019 by original authors @ fontello.com</metadata>
<defs>
<font id="fontello" horiz-adv-x="1000" >
<font-face font-family="fontello" font-weight="400" font-stretch="normal" units-per-em="1000" ascent="850" descent="-150" />
<missing-glyph horiz-adv-x="1000" />
<glyph glyph-name="black-and-white-whistle-variant" unicode="&#xe800;" d="M808 525l-25 32c-3 4-74 77-170 77-18 0-36-3-53-8-107-32-151-113-160-133l-49-8-346-243 0-3c-8-28-6-52 6-71 18-29 52-36 54-37l3 0 374 226 59 2 2 5c54 119 146 144 214 144 55 0 98-16 98-16l29-11 0 0c1 0 105-2 112-29 5-19-29-49-49-65-44 94-160 138-268 98-68-25-109-77-129-136l-66 0-366-225c-1 0-30-4-58 22 0 0 11-89 89-79l332 209 74-81c48-84 159-122 261-84 102 37 161 136 145 230 25 22 95 90 76 133-24 50-188 51-189 51z m-743-376c-8 2-28 9-40 28-9 14-10 33-5 54l329 231 73-97-357-216z m425 227l-53-2-73 96 48 8 1 4c1 0 8 19 26 42l84-92c-12-16-23-35-33-56z m227 149c-56 0-127-15-183-80l-84 92c24 27 61 57 115 73 15 5 32 7 48 7 88 0 157-71 157-71l25-30c-19 4-46 9-78 9z" horiz-adv-x="1000" />

<glyph glyph-name="down-dir-1" unicode="&#xe801;" d="M265 84l-265 530h529z" horiz-adv-x="529" />

<glyph glyph-name="right-dir" unicode="&#xe802;" d="M529 349l-529-265v530z" horiz-adv-x="529" />

<glyph glyph-name="checkered-flags" unicode="&#xe803;" d="M30 678c1 0 2 0 4 1l15 4 162-547-2 0c-14-5-21-21-16-38l66-225c5-14 16-23 28-23 2 0 4 0 6 1l75 22c14 4 21 21 16 38l-67 224c-4 14-15 24-27 24-2 0-4-1-7-1l-2-1-8 28 8 2 7 3 82 24c-1-3-1-5-1-8v-186l23-80c1 0 2 0 3 0h78c14 0 26 14 26 31v235c0 17-12 31-26 31h-3v7l92 27h421v537h-344l-12 42-133-39c3 2 5 5 5 10 0 7-6 13-13 13h-104c-8 0-13-6-13-13 0-8 5-13 13-13h15v-26l-240-72-12-3-25-8-2 5 15 4c7 2 11 10 9 16-2 6-7 10-12 10-2 0-3 0-4-1l-100-29c-7-3-11-10-9-17 2-5 7-9 13-9z m921-139v-235h-279l108 32-61 203h232v0z m-236 236v-222l-66 222h66z m-351-37l33-113 26-86 7-23 17 6 23 7 10 2 26 8 164 49 69-230-83-25-99-29-58-17-1-1 0 1-5 17-13 44-10 32-23 78-17 58-27-7-6-2-178-53-66 221 211 63z" horiz-adv-x="1000" />

<glyph glyph-name="couple-of-football-cones" unicode="&#xe804;" d="M541 397l-24 8 13-51c0-1 0-1 1-2l10 45z m-203-246c11-11 29-11 40 0l127 84 13 62c-27-29-87-49-160-49-100 0-176 37-176 86 0 6 1 12 3 18l12 53-119-41c-11-11-11-29 0-40l260-173z m55 699h-80l-97-439-14-64c-2-4-3-9-3-13 0-38 71-69 159-69 88 0 159 31 159 69 0 5-1 10-3 14l-16 64-105 438z m529-762l-120 42 12-52c3-6 4-13 4-20 0-49-75-86-176-86-100 0-176 37-176 86 0 6 1 12 3 18l12 53-119-41c-11-11-11-29 0-40l260-190c11-11 29-11 40 0l260 190c11 11 11 29 0 40z m-436-17c-2-4-3-8-3-13 0-38 71-69 159-69 88 0 159 31 159 69 0 5-1 10-3 14l-16 64-105 438h-80l-40-182-32-143-25-113-14-65z" horiz-adv-x="1000" />

<glyph glyph-name="football-ball-variant" unicode="&#xe805;" d="M500 850c-276 0-500-224-500-500s224-500 500-500c276 0 500 224 500 500s-224 500-500 500z m0-967c-203 0-376 131-440 312 4-3 8-4 12-4 29 0 57 70 57 156 0 86-28 156-57 156-5 0-10-2-15-7 61 186 237 321 443 321 229 0 420-166 459-384-12 11-25 29-32 39-2 2-3 5-5 7l0 0 0 0c-15 19-38 30-72 30-86 0-156-71-156-159 0-88 70-159 156-159 15 0 28 2 39 6 12 5 23 12 31 21 12 8 24 15 33 21-50-204-234-356-453-356z m426 341c0 0-1 0-3-2 1 2 2 3 3 4l0-2z m-467 527c-85 0-211-76-211-170 0-28 4-55 11-78l0 0 0 0c3-8 6-15 9-22 18-49 53-175 1-284-1 0-1 0-1 0 0-1 0-1-1-2h0c-13-28-19-62-19-99 0-93 126-169 211-169s97 76 97 169c0 35-13 68-35 95l0 0c0 0-75 188 4 301 1 2 3 4 4 5 0 1 0 1 0 1l0 0c17 24 27 53 27 83 0 94-12 170-97 170z m426-557c-2-1-4-3-5-3 1 0 3 2 5 3z" horiz-adv-x="1000" />

<glyph glyph-name="football-coach-screaming" unicode="&#xe806;" d="M618 744c9-1 17-5 23-11 6 11 9 24 9 37 0 44-35 80-79 80-44 0-80-36-80-80 0-44 36-79 80-79 5 0 10 0 14 1-3 6-5 13-4 20 1 19 18 33 37 32z m-218 10c-12-3-66-7-113-8l-112 39c-18 6-38-4-45-22-6-19 4-39 22-45l118-42c4-1 8-2 12-2 0 0 1 0 1 0 44 2 74 4 95 6-83-125-143-249-161-288-6-6-10-14-11-22l-89-445c-5-26 12-52 38-57 4 0 7-1 10-1 23 0 43 16 48 39l88 445c1 5 1 10 1 15l51-7c0-1 0-2 0-4l25-263-30-186c-4-26 14-51 41-55 2-1 5-1 7-1 24 0 45 17 48 41l31 192c1 4 1 9 0 13l-25 250 1 0c0 1-1 2-1 3-1 6-2 11-5 16-17 80 67 161 114 216l117-70 165-35c3 0 5-1 7-1 17 0 32 12 35 28 4 19-8 38-27 42l-154 33-113 68c-3 2-6 3-9 4-35 35-123 85-147 98-9 7-21 10-33 6z m346-116c-4-16 5-31 20-35 2-1 5-1 7-1 13 0 24 9 27 22 2 8 1 16-2 22-4 7-10 11-18 13-15 4-30-5-34-21z" horiz-adv-x="1000" />

<glyph glyph-name="football-court-top-view" unicode="&#xe807;" d="M912 681h-395v-103c118-9 212-108 212-228 0-120-94-219-212-228v-103h395c0 49 40 88 88 88v38h-144c-31 0-56 25-56 56v288c0 31 25 56 56 56h144v48c-48 0-88 39-88 88z m-217-331c0 101-79 185-178 194v-388c99 9 178 93 178 194z m-212-194v388c-99-9-177-93-177-194 0-101 78-185 177-194z m464-137h53v54c-29 0-53-24-53-54z m-112 470v-288c0-12 9-21 21-21h144v331h-144c-12 0-21-10-21-22z m-352-470v103c-118 9-212 108-212 228 0 120 94 219 212 228v103h-395c0-49-40-88-88-88v-48h139c31 0 56-25 56-56v-288c0-31-25-56-56-56h-139v-38c48 0 88-39 88-88h395v0z m-483 54v-54h53c0 30-24 54-53 54z m161 128v288c0 12-10 22-22 22h-139v-331h139c12 0 22 9 22 21z m-108 480h-53v-54c29 0 53 24 53 54z m947-54v54h-53c0-30 24-54 53-54z" horiz-adv-x="1000" />

<glyph glyph-name="football-fans-group" unicode="&#xe808;" d="M307 528c0 0 6 6 18 13l51-126c0 0 0 0 0 0l1 0 6-1c46-3 81-40 81-86 0-17-4-33-13-46l3-3c5-2 10-6 14-10 1-2 2-3 3-4 2-3 4-6 6-11l3-9 2-1h-1l7-21h9l8 21h-3l3 1 3 9c2 5 4 8 6 11 1 1 2 3 4 5 5 4 10 8 16 10-9 14-14 30-14 48 0 46 36 84 82 87l2 0 1 0 48 118c11-8 16-14 16-14l84 127c0 0-101 84-271 84-152 0-264-93-264-93l89-109z m196-83c-5 0-10-1-15-1-4 0-10 1-14 2-8 1-15 8-15 13s5 6 13 3c4-1 9-2 14-2 6 0 11 1 16 3 9 2 16 2 16-4 0-6-7-13-15-14z m-44 56c0 6 5 10 10 10 6 0 11-4 11-10 0-5-5-10-11-10-5 0-10 5-10 10z m42 0c0 6 5 10 10 10 6 0 10-4 10-10 0-5-4-10-10-10-5 0-10 5-10 10z m-10 86c47 0 86-12 116-26-1-1-1-1-1-2l-56-143 0-1h-1-9-12-18c6 2 12 5 18 9v89h-95c-5-10-9-21-9-33 0-31 21-56 48-65h-39-1-1l0 1-56 143c-1 2-2 4-3 6 31 12 71 23 119 22z m-473-615c13-5 29 2 34 16l55 143-6-98c-1-17 6-32 17-43v273h-6-2-3-1c-4-2-8-4-11-7 0-1-1-1-1-2-2-2-3-4-4-6l-88-242c-5-14 2-29 16-34z m210 0c14-5 29 2 34 16l13 33 13-33c5-14 20-21 34-16 14 5 21 20 16 34l-9 25v232h-7-2-3-1c-4-2-8-4-10-7-1-1-2-1-2-2-2-2-3-4-4-6l-25-70-26 70c-1 2-2 4-3 6-1 1-1 1-2 2-3 3-6 5-10 6 0 1-2 1-2 1h-3-1-7v-232l-9-25c-5-14 2-29 16-34z m89 159l-3-59-10 25 13 34z m-72-34l-9-25-4 59 13-34z m201 231c0 36-29 66-65 68 0 0-1 0-2 0 0 0-1 0-1 0-36-2-65-32-65-68 0-31 20-56 48-65h-14v-284c6-1 11-2 17-2h6v291h19v-291h7c6 0 11 1 16 2v284h-14c28 9 48 34 48 65z m-87 32c5 0 10-5 10-10 0-6-5-11-10-11-6 0-11 5-11 11 0 5 5 10 11 10z m33-66c-5-1-10-2-14-2-5 0-10 1-15 2-8 2-15 8-15 14 0 5 5 5 13 3 4-2 9-3 14-3 6 0 11 1 16 3 9 3 16 2 16-4 0-6-7-12-15-13z m8 45c-5 0-10 5-10 11 0 5 5 10 10 10 6 0 11-5 11-10 0-6-5-11-11-11z m89-351l4 11 5-11c5-14 20-21 34-16 11 4 17 14 17 25 2-3 4-5 6-7v273h-6-2-3-1c-4-2-8-4-11-7 0-1-1-1-1-2-2-2-3-4-4-6l-34-93-34 93c0 2-2 4-3 6-1 1-1 1-2 2-3 3-6 5-10 6 0 1-2 1-2 1h-3-1-7v-273c2 2 4 5 6 7 0-11 7-21 18-25 14-5 29 2 34 16z m55 143l-6-98c0 0 0 0 0 0l-15 42 21 56z m-95-98c0 0 0 0 0 0l-7 98 22-56-15-42z m229-61c14-5 29 2 34 16l7 16 6-16c5-14 20-21 34-16 9 3 16 12 17 21 2-2 4-4 6-6v276h-9-2-3-2c-4-2-7-4-10-7-1-1-1-1-2-2-1-2-2-4-3-6l-32-88-33 88c0 2-2 4-3 6-1 1-1 1-2 2-3 3-6 6-10 6 0 1-2 1-2 1h-3-1-7v-273c1 1 2 2 3 3 1-9 8-18 17-21z m90 159l-6-90-14 38 20 52z m-79-52l-14-38-6 90 20-52z m218 175c-1 1-1 1-2 2-3 3-7 5-11 6 1 1-1 1-1 1h-3-2-3v-270c10 10 15 24 14 40l-6 98 55-143c5-14 21-21 34-16 14 5 21 20 16 34l-88 242c-1 2-2 4-3 6z m-82 181c-1 1-1 1-2 2-3 3-6 6-10 7 0 0-1 0-2 0 5-7 10-18 16-29l4-1c1 0 2 0 3 0l-6 15c-1 2-2 4-3 6z m-137 9h-2-2c-3-1-7-4-10-7-1-1-1-1-2-2-1-2-2-4-3-6l-12-34c2-2 4-4 6-6 6 22 17 43 25 55z m208-116c0 36-28 66-64 68-1 0-1 0-2 0-1 0-1 0-2 0-36-2-64-32-64-68 0-26 14-49 36-60h1v-1c3-1 7-3 10-4h-10v-285c4-1 9-1 14-1h9v291h19v-291h3c7 0 14 1 20 3v283h-17c27 9 47 34 47 65z m-83 32c5 0 10-5 10-10 0-6-5-11-10-11-6 0-11 5-11 11 0 5 5 10 11 10z m33-66c-4-1-10-2-14-2-5 0-10 1-15 2-8 2-15 8-15 14 0 5 6 5 13 3 4-2 9-3 14-3 6 0 12 1 17 3 8 3 15 2 15-4 0-6-7-12-15-13z m8 45c-5 0-10 5-10 11 0 5 5 10 10 10 6 0 11-5 11-10 0-6-5-11-11-11z m-104 238c-1 0-1 0-2 0 0 0-1 0-2 0-36-2-64-32-64-68 0-31 20-56 47-65h-25c-7-11-24-40-30-69 9-14 15-30 15-47 0-7-1-14-3-21l-2-31c3-2 5-4 8-7 1-2 2-3 3-4 2-3 4-6 6-11l3-9 3-1h-2l10-29 11 29h-2l3 1 3 9c2 5 4 8 6 11 1 1 2 3 4 5 4 4 9 8 16 10-9 14-14 30-14 48 0 42 30 77 70 85-7 14-13 25-17 31h-28c28 9 48 34 48 65 0 36-29 66-65 68z m-22-39c5 0 10-5 10-10 0-6-5-10-10-10-6 0-11 4-11 10 0 5 5 10 11 10z m33-66c-5-1-10-1-15-1-4 0-10 0-14 1-8 2-15 9-15 14 0 5 5 6 13 3 4-1 9-3 14-3 6 0 11 2 16 3 9 3 16 2 16-4 0-6-7-12-15-13z m8 46c-5 0-10 4-10 10 0 5 5 10 10 10 6 0 10-5 10-10 0-6-4-10-10-10z m-571-67c0-31 20-56 47-65h-15c14-15 22-36 22-58 0-17-5-33-13-46l3-3c5-2 9-6 13-10 2-2 3-3 4-4 2-3 4-6 6-11l3-9 2-1h-2l4-11 5 11h-3l3 1 3 9c2 5 4 8 6 11 1 1 2 3 4 5 4 4 10 8 16 10-9 14-14 30-14 48 0 22 8 42 22 58h-31c27 9 47 34 47 65 0 36-28 66-64 68-1 0-1 0-2 0-1 0-1 0-2 0-36-2-64-32-64-68z m87 18c5 0 10-5 10-10 0-6-5-11-10-11-6 0-10 5-10 11 0 5 4 10 10 10z m-42 0c6 0 10-5 10-10 0-6-4-11-10-11-6 0-10 5-10 11 0 5 4 10 10 10z m2-49c4-2 9-3 15-3 5 0 11 2 16 3 9 3 15 2 15-4s-6-12-14-13c-5-1-10-1-15-1-5 0-10 0-15 1-8 2-14 8-14 14 0 5 5 6 12 3z m-96-85c-3 0-6 2-8 5l-35-33c4-13 12-24 22-32l19 18c-5 3-8 7-8 11 0 5 5 6 13 3 2-1 5-2 8-2l33 31c-1 0-1-1-2-1-6 0-10 5-10 11 0 5 4 10 10 10 6 0 10-5 10-10 0-1 0-2 0-3l23 22c-7 11-17 20-29 25l-39-37c2-2 4-4 4-7 0-6-5-11-11-11z m-46-7c0-3 0-5 0-7l79 73c-4 1-7 1-11 2-1 0-1 0-2 0 0 0-1 0-2 0-36-2-64-32-64-68z m133 0c0 9-2 18-6 26l-51-48c1 1 2 1 3 1 9 3 16 2 16-4 0-6-7-12-15-13-5-1-10-1-15-1-2 0-5 0-7 0l-22-21c3-2 7-4 12-5h-14v-284c5-1 11-2 17-2h6v286h19v-286h7c5 0 11 1 16 2v284h-14c28 9 48 34 48 65z m292 208c-10 7-22 11-35 12v0c-1 0-2 0-2 0-1 0-1 0-2 0v0c-19-1-36-10-47-23h86v11h0z m20-23h-8v-78c11 12 17 27 17 45 0 12-3 23-9 33z m-8-181h132c-1 14-6 27-14 38h-103c-8-11-14-24-15-38z m87 28c6 0 10-5 10-10 0-6-4-11-10-11-5 0-10 5-10 11 0 5 5 10 10 10z m-42 0c6 0 11-5 11-10 0-6-5-11-11-11-5 0-10 5-10 11 0 5 5 10 10 10z m87-40h-131c1-9 3-18 8-25h40c-8 2-14 8-14 13 0 5 5 5 13 3 4-2 9-3 14-3 6 0 11 1 16 3 9 3 16 2 16-4 0-5-5-10-12-12h42c4 7 7 16 8 25z m-114-37c8-9 18-16 30-20h-14v-284c6-1 11-2 17-2h6v291h19v-291h7c5 0 11 1 16 2v284h-14c12 4 22 11 30 20h-97z m48 113c0 0-1 0-1 0-15-1-27-6-38-14h79c-11 8-24 13-38 14 0 0-1 0-2 0z" horiz-adv-x="1000" />

<glyph glyph-name="football-goalkeeper-catching-the-ball" unicode="&#xe809;" d="M240 509c0-9 2-17 6-24l96 46c-8 18-27 31-48 31-30 0-54-24-54-53z m-186-172c27 0 49 20 53 46-1 5-1 9 0 14-3 27-26 47-53 47-30 0-54-24-54-53 0-30 24-54 54-54z m858-56c-84 42-221 111-235 119-5 4-10 5-15 6l-232 111-9 5-16 7c-2 2-5 3-8 4l-1 1 0 0c-3 0-5 1-8 1-5 0-10-1-14-3l-28-14-93-44-116-56c-16-8-22-27-15-42 6-12 17-18 29-18 4 0 9 1 14 3l205 98-3-8-3-9-10-28c0-1 0-1 0-1-40-25-85-54-99-62-13-1-48-6-145-19-18-2-30-18-27-36 2-16 15-27 31-27 2 0 3 0 4 0 52 7 135 18 147 20 10 0 17 2 110 63l165-94-9-21c-5-12-4-25 2-35 7-11 18-17 31-18l193-8c1 0 1 0 2 0 20 0 36 16 37 36 1 21-15 38-36 39l-139 6 32 71c24-12 81-42 219-111l63-67c8-8 18-12 28-12 9 0 18 3 25 10 15 14 16 37 2 53l-67 72c-3 4-7 6-11 8z" horiz-adv-x="1000" />

<glyph glyph-name="football-in-midair" unicode="&#xe80a;" d="M678 841c-177 0-321-145-321-322 0-36 6-70 17-102l-182-276 155 103-347-385 465 420c13-12 28-23 43-32l-264-324 348 284-3 3c28-8 58-13 89-13 178 0 322 145 322 322 0 177-144 322-322 322z m-161-400c-27 0-51-13-66-34-17 34-26 72-26 112 0 40 9 78 26 112 15-20 39-34 66-34 46 0 83 37 83 83 0 28-13 52-33 67 33 16 71 26 111 26 41 0 78-10 112-26-20-15-33-39-33-67 0-46 37-83 83-83 27 0 51 14 66 34 17-34 26-72 26-112 0-40-9-78-26-112-15 21-39 34-66 34-46 0-83-37-83-83 0-27 13-51 33-67-34-16-71-26-112-26-40 0-78 10-111 26 20 16 33 40 33 67 0 46-37 83-83 83z m161 161c46 0 84-37 84-83 0-46-38-83-84-83-45 0-83 37-83 83 0 46 38 83 83 83z" horiz-adv-x="1000" />

<glyph glyph-name="football-jersey-shirt" unicode="&#xe80b;" d="M982 469l-190 190c-11 11-26 18-42 18-4 0-8-1-11-1l-144-28c-22-5-40-22-46-44-6-22-26-38-49-38-23 0-43 16-49 38-5 22-24 39-46 44l-143 28c-4 0-8 1-12 1-16 0-31-7-42-18l-190-190c-12-11-18-26-18-42 0-16 6-31 18-43l103-103c12-12 27-18 43-18 15 0 30 6 42 18l9 9-19-193c-2-17 4-37 15-50 12-12 28-24 45-24h488c17 0 33 12 45 24 11 13 17 31 15 48l-19 194 9-9c12-12 27-17 42-17 16 0 31 6 43 18l103 103c12 12 18 27 18 43s-6 31-18 42z m-726-386l21 217 194-217h-215z m580 240l-128 124 36-364h-193l-266 297 7 67-128-126-104 105 190 190 143-27c13-48 56-83 107-83 52 0 94 35 107 83l143 28 190-190-104-104z" horiz-adv-x="1000" />

<glyph glyph-name="football-long-socks" unicode="&#xe80c;" d="M243-102c76 44 75 142 132 148 57 6-9 118 0 190 6 45 34 223 32 378 2 22 4 72-11 134h0c-3 20-8 38-14 54-8 21-37 35-58 35h-118c-22 0-40-18-40-39 0-12 0-26 0-41h0c0-82 7-130 10-150 6-49 14-101 27-151 44-177 64-229 0-342-65-112-221-168-201-216 20-49 166-45 241 0z m134 845c13-51 13-95 11-119-6-1-12-2-18-3l-7 119c4 1 9 2 14 3z m-53-11c6 1 12 2 19 4l7-119c-9-2-18-3-26-4v119z m-49-6c9 1 19 2 29 3v-119c-10-1-20-2-29-2v118z m-79-117c-3 16-9 55-10 120 6-1 14-2 23-3l6-119c-7 1-13 1-19 2z m45-2c-2 0-4 0-6 0l-6 118c8 0 17 0 27 0v-118c-5 0-11 0-15 0z m557-493c-65 113-45 165 0 342 12 50 20 102 26 151 3 20 10 68 10 150h0c0 15 0 29 0 41 0 21-18 39-40 39h-118c-21 0-50-14-57-35-7-16-12-34-15-54 0 0 0 0 0 0-15-62-13-112-11-134-2-155 26-333 32-378 9-72-57-184 0-190 57-6 56-104 132-148 75-45 221-49 241 0 20 48-136 104-200 216z m-168 507c-6 1-12 2-18 3-2 24-1 68 11 119 5-1 10-2 15-3l-8-119z m46-8c-8 1-17 2-26 4l7 119c7-2 13-3 19-4v-119h0z m49-5c-9 0-19 1-29 2v119c10-1 20-2 29-3v-118z m66 118c9 1 17 2 23 3-1-65-7-104-10-120-6-1-12-1-19-2l6 119z m-47-119v118c10 0 19 0 28 0l-7-118c-2 0-4-1-6-1-4 1-9 1-15 1z" horiz-adv-x="1000" />

<glyph glyph-name="football-player-blocking-another-player" unicode="&#xe80d;" d="M545 376l8 19c14 0 28 0 42 1l59-139 55-280c4-20 22-35 42-35 3 0 6 0 9 1 23 5 39 27 34 51l-55 284c-1 3-2 6-3 9l-52 122c1 1 1 3 1 6-29 12-58 23-69 27-13 2-25 9-39 17-11 6-26 15-44 27-1 0-1 0-1 1 4-42 5-71 4-87l9-24z m438 57l-125 73-138 112c-6 5-12 7-18 8v0c0 0 0 0 0 0-2 0-3 0-5 0-1 0-2 0-3 0-7 0-14 0-21 0-95 0-175-10-187-11 12-2 19-3 19-3l10-1 0-3c2-1 4-2 5-3 51-32 100-62 116-70 12-3 29-10 58-21 1 11 1 23 2 34l121-98c1-1 2-2 4-3l127-74c3-2 7-4 11-4 2-1 4-1 6-1 12 0 24 6 30 17 10 17 4 38-12 48z m-581-468c20 0 38 14 43 35l41 196-13 62-35 85-19-46c-1-2-1-5-2-7l-58-272c-5-24 10-47 34-52 3-1 6-1 9-1z m-155 458c5 0 9 1 13 3 10 4 20 8 30 12-1 18-3 41-5 70l-72-58c1-2 1-4 2-5 6-14 19-22 32-22z m-153-369c38 0 69-31 69-69 0-38-31-69-69-69-38 0-69 31-69 69 0 38 31 69 69 69z m44 439l-121-71c-16-9-22-30-12-46 6-11 17-17 29-17 2 0 4 0 6 1 4 0 8 2 11 4l124 72c1 1 2 2 4 3l20 17 7 5 8 6 36 30 18 14 18 15 10 8c0-1 0-3 0-4 1-2 1-5 1-7 0-2 0-5 0-7 2-25 4-52 6-73 0-2 1-5 1-7 0-2 0-5 1-7 1-14 2-26 3-30l-51-119c-1-3-2-6-2-8l-54-277c-5-23 10-46 33-50 3-1 6-1 8-1 20 0 38 14 42 34l53 273 57 135c14-1 28-1 41-1l3-6 4-9 3-9 41-99 7-34 3-16 4-16 41-196c5-20 22-34 42-34 3 0 6 1 9 1 23 5 37 28 32 51l-56 265c0 2-1 5-2 7l-21 50-3 9-4 9-16 40c3 21-1 70-7 114 8-4 16-9 25-15 18-11 33-20 44-26 14-8 24-15 35-16 10-3 38-14 68-26 2-1 4-2 6-3 2 0 4-1 6-2 8-3 15-6 22-9 4-2 8-2 13-2 13 0 26 8 31 21 7 17-1 37-18 44-16 6-29 12-41 17-3 1-5 1-7 2-2 1-4 2-6 3-32 13-50 19-62 22-16 8-70 42-118 72-3 2-6 3-10 4 0 1 0 1 0 1s-14 2-39 4c-3 1-7 1-11 1-3 1-7 1-11 1-3 1-6 1-10 1-14-18-36-30-61-30-27 0-51 14-64 34-3 0-6 0-9 0-1 1-2 1-3 1-1 0-3-1-4-1 0 0 0 0-1 0 0 0 0 0 0 0-6-1-12-3-17-7l-135-110z m186 117c11-13 28-21 47-21 17 0 33 7 45 18 2 2 3 4 5 7 2 2 3 4 5 6 6 10 9 21 9 33 0 35-29 64-64 64-35 0-64-29-64-64 0-11 3-20 7-29 2-2 3-5 4-7 2-2 4-4 6-7z" horiz-adv-x="1000" />

<glyph glyph-name="football-player-using-head-to-hit-ball" unicode="&#xe80e;" d="M509 850c41 0 75-33 75-75s-34-75-75-75c-41 0-75 34-75 75s34 75 75 75z m199-26c41 0 74-33 74-75 0-41-33-74-74-74-42 0-75 33-75 74 0 42 33 75 75 75z m-297-120c1 2 1 5 1 7l-4-7 3 0z m439-492c17 23 12 57-12 74l-273 195c-5 4-11 7-17 8l-204 56c1 9 3 21 8 34l-56 6c-22 0-43 12-54 32-11 20-10 44 3 64l67 105c1 2 2 3 3 4-27-9-51-22-51-22-159-124-127-295-108-358 1-6 2-13 6-19l0-1c1-2 2-4 2-4s0 0 0 0l116-210 103-291c7-21 28-35 50-35 6 0 12 1 18 3 27 10 42 40 32 68l-104 294c-1 3-2 6-3 8l-121 220c-1 1-2 3-3 5 5 3 10 7 15 11 5-3 10-6 16-8l228-62 265-190c9-7 20-10 31-10 17 0 33 8 43 23z m-461 579c-8 5-16 7-25 7-1 0-2 0-3 0-14-2-27-9-35-21l-67-105c-9-14-10-32-2-47 8-14 23-24 40-24l60-6 108-10c25 0 45 20 45 45 0 26-20 46-45 46l-60 12-25 5 23 35c3 4 4 9 5 13 5 19-2 39-19 50z" horiz-adv-x="1000" />

<glyph glyph-name="football-player-attempting-to-kick-ball" unicode="&#xe80f;" d="M615 850c40 0 72-32 72-72 0-40-32-72-72-72-40 0-72 32-72 72 0 40 32 72 72 72z m-371-585c-24 15-54 9-69-15-15-23-8-53 15-68l143-92c21-13 50-9 66 12l174 226 136-175 20-242c2-26 24-45 49-45 2 0 3 0 5 0 27 2 47 26 45 53l-21 256c-1 10-4 19-10 27l-111 167 9 227c0 0 2 14 3 30 14 16 33 39 57 72 37 48 71 96 72 96 11 15 7 36-8 47-15 11-37 8-47-7-37-52-81-109-112-148-40 5-96 5-129-2-12-2-19-7-24-13-1-1-2-2-3-3-59-83-133-179-151-192-16-9-23-28-15-45 6-12 18-19 31-19 5 0 10 1 15 4 9 4 24 12 104 116 2 3 5 7 8 11l-4-126 1 0-145-218-104 66z m327-259c43 0 78-35 78-78 0-43-35-78-78-78-43 0-78 35-78 78 0 43 35 78 78 78z" horiz-adv-x="1000" />

<glyph glyph-name="football-sports-gloves" unicode="&#xe810;" d="M945 388c-16 29-46 47-77 47-13 0-27-4-38-10l-57-32c1-5 1-10 0-15-1-6-4-12-7-18l76 43c8 5 17 7 26 7 21 0 43-13 55-34 17-31 27-68 0-84l-219-154c-2-24-6-52-15-72-6 3-12 4-19 5l-122 7c-1-5-2-9-4-13 0-2-1-3-2-5 4-2 7-5 10-8l117-6c2 0 3-1 5-1 4-1 9-3 12-6 4-2 7-5 9-9 3-5 4-11 4-18l-5-95c-1-17-15-30-32-30-1 0-1 0-2 0l-88 5c-1-5-4-9-7-12-4-5-8-9-14-12l108-6c1 0 2 0 3 0 30 0 55 23 57 53l5 96c1 15-4 29-14 40 9 18 15 42 18 73l208 147c27 16 44 55 9 117z m-202 72c2-3 4-7 6-10 5-6 9-12 12-18 1 21 2 44 5 68l3 30-1 0 13 145c3 21-1 43-13 60-13 18-31 30-52 33-4 1-8 1-12 1-16 0-30-5-42-13-6 38-37 68-75 69-1 0-2 0-3 0l0 0c-32 0-60-20-73-48 0 0-1 1-2 1 3-7 5-15 6-24 0-2 0-4 0-6l7-108 8 106c1 30 25 54 54 54 0 0 1 0 2 0 30-1 53-27 52-59l-6-138 18 92c4 29 28 49 54 49 2 0 5 0 8-1 29-5 49-33 44-65l-16-176 1 1c-1-13-2-26-3-38 1-2 3-3 5-5z m-706 150l48-206c2-9 7-17 13-23 2-35 5-74 5-90 0-31 62-222 106-262 7 6 16 9 25 10l128 13 11 1 4 1 12 1 9 1 19 2 13 1 80 8 0 0c2 0 4 0 5 0l0 0c4 0 8 0 11-1 0 0 0 0 1 0 0 0 0 0 0 0 1 4 3 8 4 12 6 23 5 53 3 78l200 194 9 9c3 2 4 4 6 6 12 15 9 36-1 56-3 7-7 13-12 19-2 3-4 7-7 10-14 18-35 28-55 28-13 0-26-4-36-13l-107-84c-5 32-14 96-19 174l-1 0-13 192c0 3 0 5 0 8-1 7-3 13-6 19-3 7-7 13-12 18-10 11-24 17-40 18 0 0 0 0 0 0-33 0-59-28-59-63l-2-52-1-13 0-13-1-24-3 25-1 13-2 12-11 100c-4 32-30 55-59 55-3 0-5 0-7 0-32-4-55-35-51-69l13-164-26 131c-5 28-28 48-53 48-3 0-6-1-9-1-28-6-46-36-40-67l32-186-22 91c-6 24-27 41-50 41-4 0-8-1-12-2-28-6-46-34-39-62z m523-694l-9 96-1 8c0 1-1 3-1 5-1 5-4 9-7 13-2 3-5 5-8 7-2 2-5 3-8 4-3 1-6 1-9 2-1 0-1 0-2 0-1 0-2 0-3 0l-36-4-46-5-38-4-9 0-13-2-13-1-121-12c-2-1-5-1-7-2-4-1-8-3-12-6-2-2-4-5-6-7-5-7-7-15-6-23l10-104c2-18 17-31 35-31 1 0 2 0 3 0l220 22 56 6c4 0 8 2 11 3 6 3 11 7 14 12 5 6 7 14 6 23z m-183 40c-4-2-8-3-12-5-5-2-9-4-13-5-8-4-14-8-17-11-14-20 19-30 19-30-33 6-67 21-41 59 7 10 22 16 41 19 4 1 8 2 13 2 4 1 8 1 12 1 49 4 104-2 104-2s-62-14-106-28z" horiz-adv-x="1000" />

<glyph glyph-name="football-trophy-cup" unicode="&#xe811;" d="M204 682c0 10-6 21-16 22-36 6-70 9-106 10-9 0-20-7-22-16-32-196 94-455 272-565l11-69c4-25 28-45 52-45h4v-55h-78c-13 0-25-10-27-22l-18-92h441l-18 92c-2 12-14 22-27 22h-71v55h4c24 0 48 20 52 45l11 69c178 110 304 369 272 565-2 9-13 16-22 16-36-1-70-4-106-10-10-1-15-12-16-22-4-35-22-43-46-44l27 168c4 24-13 44-38 44h-7-464-7c-25 0-42-20-38-44l27-168c-24 1-42 9-46 44z m539-86h64c9 0 20 7 22 17 7 45 1 54 55 55 30 1 14-77 12-87-11-59-29-116-56-169-39-78-91-160-162-217l65 401z m-486 0l65-401c-70 57-123 139-162 217-27 53-45 110-56 169-2 10-18 88 12 87 54-1 48-10 55-55 2-10 13-17 22-17h64z" horiz-adv-x="1000" />

<glyph glyph-name="timer-clock" unicode="&#xe812;" d="M300 706c-17 14-39 23-63 23-53 0-97-43-97-97 0-14 4-28 9-40 42 47 94 86 151 114z m200-856c239 0 433 194 433 433 0 214-155 392-360 427v17 18 46h38c12 0 22 13 22 29 0 17-10 30-22 30h-222c-12 0-22-13-22-30 0-16 10-29 22-29h38v-46-18-17c-37-7-72-17-104-32-59-27-112-66-153-115-64-76-103-173-103-280 0-239 194-433 433-433z m-255 686c24 25 52 46 83 62 51 28 110 44 172 44 198 0 360-161 360-359 0-198-162-360-360-360-198 0-359 162-359 360 0 99 40 188 104 253z m38-470c14-14 29-27 45-38 8-5 17-11 26-15 43-24 93-38 146-38 7 0 13 1 20 1 32 2 64 9 93 21 11 4 23 10 34 16 8 4 17 10 25 15 16 11 31 24 45 38 56 55 90 132 90 217 0 85-34 162-90 217-14 14-29 27-45 38-8 5-17 11-25 15-11 6-23 11-34 16-29 11-61 19-93 21-7 0-13 0-20 0-53 0-103-13-146-37-9-4-18-10-26-15-16-11-31-24-45-38-56-55-90-132-90-217 0-85 34-162 90-217z m217 462v-231l-231-89c-41 160 71 320 231 320z" horiz-adv-x="1000" />

<glyph glyph-name="menu-outline" unicode="&#xe813;" d="M885 38l-729 0q-21 0-37-16t-15-37 15-36 37-15l729 0q21 0 37 15t16 36-16 37-37 16z m0 104q65 0 111-46t45-111-45-110-111-46l-729 0q-65 0-110 46t-46 110 46 111 110 46l729 0z m0 261l-729 0q-21 0-37-16t-15-37 15-37 37-15l729 0q21 0 37 15t16 37-16 37-37 16z m0 104q65 0 111-46t45-111-45-110-111-46l-729 0q-65 0-110 46t-46 110 46 111 110 46l729 0z m0 260l-729 0q-21 0-37-15t-15-37 15-37 37-15l729 0q21 0 37 15t16 37-16 37-37 15z m0 105q65 0 111-46t45-111-45-110-111-46l-729 0q-65 0-110 46t-46 110 46 111 110 46l729 0z" horiz-adv-x="1041" />

<glyph glyph-name="home-outline" unicode="&#xe814;" d="M1108 422q38-30 38-80 0-42-30-73t-75-31l-51 0 0-312q0-44-31-75t-74-30l-625 0q-42 0-73 30t-31 75l0 312-52 0q-44 0-74 31t-30 73q0 46 36 79 79 66 204 174t211 181 88 75l34 29 35-29q1-1 86-75t211-181 203-173z m-430-496l0 260-209 0 0-260 209 0z m207 416l156 0q-231 194-468 400-238-206-469-400l156 0 0-416 156 0 0 312 313 0 0-312 156 0 0 416z" horiz-adv-x="1146" />

<glyph glyph-name="football-or-soccer-board-with-results-of-games" unicode="&#xe815;" d="M160 137h438v-93h-438z m559 0h102v-93h-102z m-559 113h438v-93h-438z m0 113h438v-94h-438z m559-113h102v-93h-102z m-101 326h82v-81h-82z m101 0h102v-81h-102z m0-213h102v-94h-102z m0 113h102v-94h-102z m-101-113h82v-94h-82z m-261 393c-18 0-28-16-28-39 0-22 11-38 28-38 17 0 27 17 27 39 0 21-9 38-27 38z m598 94h-910v-255h910v255z m-712-191c-13 0-26 3-32 7l5 21c7-4 18-7 29-7 12 0 18 5 18 12 0 7-6 11-19 16-19 7-32 18-32 34 0 20 17 34 43 34 14 0 23-2 30-5l-6-21c-4 2-13 5-24 5-11 0-17-5-17-11 0-7 7-10 22-16 20-7 29-18 29-34 0-19-14-35-46-35z m113-1c-34 0-54 26-54 59 0 34 22 60 55 60 36 0 55-27 55-58 0-38-23-61-56-61z m131 22c8 0 17 1 22 4l4-21c-5-2-16-5-29-5-40 0-60 25-60 58 0 39 27 60 62 60 13 0 24-2 28-5l-5-20c-5 2-13 4-22 4-20 0-36-12-36-38 0-23 13-37 36-37z m96 0c8 0 17 1 22 4l4-21c-5-2-16-5-29-5-40 0-60 25-60 58 0 39 27 60 62 60 13 0 24-2 28-5l-5-20c-5 2-13 4-22 4-20 0-36-12-36-38 0-23 13-37 36-37z m116-20h-73v115h71v-21h-45v-24h42v-21h-42v-28h47v-21z m78 0c-2 4-5 13-8 27-3 14-8 18-19 18h-8v-45h-25v113c8 2 20 3 34 3 17 0 29-3 37-9 7-6 11-14 11-25 0-14-10-24-20-28v0c8-3 12-11 15-21 4-13 7-28 9-33h-26z m-159-523h82v-93h-82z m136 619c-6 0-10 0-12-1v-31h11c12 0 20 6 20 16 0 11-7 16-19 16z m-136-506h82v-93h-82z m-458 226h438v-94h-438z m458 0h82v-94h-82z m-458 19h438v81h-438v-81z m388 73c17 0 31-15 31-32 0-18-14-32-31-32-18 0-32 14-32 32 0 17 14 32 32 32z m70-544h82v-93h-82z m101-113h102v-61h-102z m121 339h115v-93h-115z m0-113h115v-93h-115z m0 226h115v-94h-115z m0-339h115v-93h-115z m-121 0h102v-93h-102z m121 552h115v-81h-115z m0-100h115v-94h-115z m0-565h115v-61h-115z m-795 0h96v-61h-96z m573 0h82v-61h-82z m-573 565h96v-94h-96z m0-113h96v-94h-96z m96 213h-96v-81h96v81z m-40-69h-13v46h-1l-10-6-3 10 16 8h11v-58h0z m59-596h438v-61h-438z m-115 339h96v-93h-96z m115-226h438v-93h-438z m-115 0h96v-93h-96z m0 113h96v-93h-96z" horiz-adv-x="1000" />

<glyph glyph-name="football-ball" unicode="&#xe816;" d="M548 427l134 192-163 152-228-82 8-214z m-87-388l123-128 214 91 35 190-212 26z m-429 132l2-3c73-186 254-318 466-318 276 0 500 224 500 500 0 276-224 500-500 500-276 0-500-224-500-500 0-62 11-121 32-176l0-3z m-6 179c0 63 13 123 35 179l118 146 31 50c80 62 181 99 290 99 3 0 5 0 8 0l53-20 116-15c75-30 140-78 191-140l-20-85 77-216 49-12c-8-255-217-460-474-460-128 0-244 51-329 134l92 79-88 226-137 47-3-101c-6 29-9 59-9 89z" horiz-adv-x="1000" />

<glyph glyph-name="football-badge" unicode="&#xe817;" d="M971 300c-115 123-73 363-52 451 4 18-4 24-22 17-147-63-371 66-396 81v1c0 0 0 0-1-1-1 1-1 1-1 1v-1c-25-15-249-144-396-81-18 7-26 1-22-17 21-88 63-328-52-451-13-13-10-23 9-23h66c0 0 14-286 395-426v-1c0 0 1 0 1 0 0 0 1 0 1 0v1c381 140 395 426 395 426h66c19 0 22 10 9 23z m-467-204c-1 0-2 1-3 1-1 0-1 0-2 0-158 3-285 132-285 290 0 158 127 287 285 290 1 0 1 0 2 0 1 0 2 0 3 0 160 0 291-130 291-290 0-160-131-291-291-291z m-3 369c0 0 0 0 0 0-1 0-1-1-2-1-42-1-76-35-76-77 0-42 34-76 76-78 1 0 1 0 2 0 0 0 0 0 0 0 43 0 78 35 78 78s-35 78-78 78z m3 187c-1 0-2 0-3 0-1 0-1-1-2-1-144-2-260-120-260-264 0-144 116-262 260-265 1 0 1 0 2 0 1 0 2 0 3 0 146 0 265 119 265 265 0 146-119 265-265 265z m174-382c-26 21-65 23-93 2-29-21-40-58-28-90-18-5-36-7-56-7 0 0 0 0 0 0-1 0-1 0-2 0-20 0-39 3-56 8 12 32 2 69-27 90-28 21-66 20-93-1-20 31-32 68-34 107 34-2 66 19 77 53 12 34-2 70-30 89 24 29 55 51 90 65 9-32 38-56 73-57 1 0 1 0 2 0 0 0 0 0 0 0 36 0 66 24 75 57 37-14 69-38 92-68-28-19-42-55-31-89 10-34 42-55 76-54-2-39-15-75-35-105z" horiz-adv-x="1000" />

<glyph glyph-name="football-card-with-cross-mark" unicode="&#xe818;" d="M372-128c7-18 27-27 45-19l493 204c18 7 26 28 19 45l-300 726c-8 18-28 27-46 19l-493-204c-18-7-26-27-19-45l301-726z m-93 634l193-77 77 192 94-37-78-193 193-77-37-93-193 77-77-193-94 37 78 193-193 77 37 94z" horiz-adv-x="1000" />

<glyph glyph-name="football-signal-of-a-game-announcement-of-one-team-vs-other" unicode="&#xe819;" d="M583 775c-6 0-9-5-9-9h17c0 3-2 9-8 9z m-390-925h614v1000h-614v-1000z m120 47h-37v99h37v-99z m22 0h-8v99h8v-99z m33 0h-19v99h19v-99z m20 0h-9v99h9v-99z m351 629c0-38-31-69-69-69s-69 31-69 69 31 69 69 69 69-31 69-69z m-131 257h6v9l14 4v-13h10v-10h-10v-16c0-6 1-8 6-8 2 0 2 0 4 0l0-11c-2 0-5-1-9-1-5 0-9 2-11 4-3 3-4 7-4 13v19h-6v10z m-24 1c14 0 20-11 20-22 0-3-1-5-1-6h-29c0-6 6-8 13-8 5 0 9 0 12 1l2-9c-4-2-10-3-16-3-16 0-24 9-24 23 0 12 7 24 23 24z m-70 20h14v-40h0c1 2 3 4 4 6l9 13h17l-16-18 18-27h-17l-11 19-4-5v-14h-14v66h0z m20-239c-11 4-16 10-16 17 0 10 9 17 22 17 7 0 12-1 16-3l-3-11c-3 1-7 3-12 3-4 0-6-2-6-5 0-2 2-4 8-6 11-4 15-9 15-17 0-10-8-17-23-17-8 0-14 1-18 3l3 12c3-1 10-4 15-4 5 0 7 2 7 5 0 3-2 4-8 6z m-59 33l8-25c1-5 2-9 3-13h0c1 4 2 8 3 13l7 25h18l-20-54h-17l-20 54h18z m-28 140v45h14v-45h-14v0z m49 46c3 0 7 0 10-1l-2-11c-2 1-4 2-8 2-7 0-12-6-12-13 0-8 6-13 12-13 4 0 6 1 9 2l1-11c-2-1-7-2-12-2-15 0-25 9-25 23 1 14 10 24 27 24z m-42 19c4 0 7-3 7-7 0-4-3-7-7-7-5 0-8 3-8 7 0 4 3 7 8 7z m-60-2h48v-12h-17v-51h-15v51h-16v12z m-38-102c38 0 69-31 69-69s-31-69-69-69-68 31-68 69 30 69 68 69z m-113-335h529v-45h-529v45z m0-97h529v-45h-529v45z m0-93h529v-45h-529v45z m0-97h529v-45h-529v45z m0-81h19v-99h-19v99z" horiz-adv-x="1000" />

<glyph glyph-name="football-team-bench" unicode="&#xe81a;" d="M17 101c9 0 16 8 16 17v72h79c6 4 12 7 18 7 11 1 17 1 17 26h-114v343h17c18-2 50-9 83-39 38-33 81-98 102-225 12-2 25-6 35-13-17 123-56 211-115 263-6 5-11 10-17 14h129c16-6 34-16 53-32 39-35 83-102 104-234 6-1 12-3 18-5-22 142-70 214-111 251-9 8-18 14-27 20h259c16-6 34-16 53-32 40-35 85-105 106-242 2 1 4 2 7 3v-6-6c-2-1-4-2-5-4-13-7-19-20-18-44 2-43-9-48-27-49-13-1-35-23-11-33h-11-7-23-16-22c91 18 49 71 49 103 0 35-56 35-56 35-43-5-64-13-61-56 2-43-10-48-28-49-12-1-35-23-11-33h-11-7-10c0 1 0 3 0 4-3-1-6-3-8-4h-9-7-22c12 2 21 5 29 8 7 3 12 7 16 10 28 25 4 61 4 86 0 10-6 18-13 23-5 4-11 6-18 8-12 3-25 3-25 3-42-5-63-13-61-56 2-43-10-48-28-49-12-1-35-23-11-33h-11-7-2c0 1 0 2 0 3-1 2-1 4-2 6-4-3-9-6-14-9h-16-1-21c8 1 15 3 21 5 17 6 27 14 32 23 15 23-4 54-4 76 0 4-1 8-3 11-6 14-23 20-36 22-9 1-17 1-17 1-42-5-63-13-61-56 0-5 0-9 0-12-1-20-5-29-12-33-4-3-10-4-16-4-17-1-51-39 31-39 4 0 9 0 14 0-1-2-2-4-2-6 0 0 0 0 0-1 0-1 0-3 1-5 2-4 6-7 11-7h62c0-4 1-7 1-10 0-9 7-17 16-17 9 0 17 8 17 17 0 3-1 7-1 10h157c0-4 0-7 0-10 0-5 3-8 8-8 5 0 8 3 8 8 0 3 0 7 0 10h275v-10c0-9 7-17 16-17 9 0 17 8 17 17v21 6 5c47 7 65 22 70 40h6 6 121c1-23 2-47 2-72 0-9 7-17 17-17s16 8 16 17c0 214-42 361-126 434-57 50-114 47-123 46h-701c-9 1-15 1-18 0h-32v-392-88c0-9 7-17 17-17z m745 195v6 264c16 0 53-5 91-39 44-40 95-124 110-304h-121-6-5c-3 12-7 24-7 33 0 35-56 35-56 35-2 0-4 0-6 0v5z m-33 270v-223c-24 111-66 171-102 203-9 8-18 14-27 20h129v0z" horiz-adv-x="1000" />

<glyph glyph-name="football-yellow-warning-card" unicode="&#xe81b;" d="M372-128c5-14 18-22 32-22 4 0 9 1 13 3l493 204c18 7 26 28 19 45l-300 726c-6 14-19 22-33 22-4 0-9-1-13-3l-493-204c-18-7-26-27-19-45l301-726z m215 920l287-694-461-190-287 694 461 190z m-3-545l-154 403-93-38 177-394z m-48-96c-6-14-5-31 1-47 11-25 32-40 56-40 8 0 16 2 23 5 32 13 45 47 32 80-14 34-47 48-79 35-16-6-27-18-33-33z" horiz-adv-x="1000" />

<glyph glyph-name="inflatable-cheerer" unicode="&#xe81c;" d="M817 646h-715c-1 1-2 1-3 1-8 4-15 8-23 12-7 3-13 6-19 9-10 5-20 10-30 15-13 6-25-12-15-20-4-5-5-13 3-17 1 0 3-1 4-2 0 0 0 0-1 0-14 4-21-19-6-23 11-3 23-7 35-11-9 2-18 4-27 6-13 4-19-13-11-20-6-6-5-17 5-19 7-2 15-3 22-4-9 0-18 0-28 1-11 1-11-23 0-24 2 0 5 0 7 0 0-1-1-1-1-2-3-2-4-6-4-9 0-4 2-7 5-9 0 0 1-1 2-1-3-1-5-1-8-2-10-3-7-26 4-24 9 3 18 5 27 7-7-3-14-5-22-8-9-4-8-15-2-20-7-8 2-24 14-18 8 4 17 8 25 11-11-6-22-12-33-17-14-7-4-29 10-22 0 0 0 0 0 0-1-1-2-2-4-3-7-5-5-13 0-17-9-9 5-25 17-16 12 8 24 17 36 25 6 5 12 9 18 13 4 3 9 7 13 10 2 1 3 2 3 3h611l68 109c4 6 12 8 18 4 6-3 7-11 4-17 0 0 0 0 0 0l-60-96-8-13-8-13-116-183c-1 0-2 0-3-1-6-3-12-6-18-9-7-3-14-6-20-10-14-6-28-13-42-20-14-7-7-29 6-26 2-7 9-12 17-9 2 1 4 2 5 3 0 0 0-1 0-1-14-10 2-31 15-21 11 8 23 15 34 23-8-7-16-13-24-19-11-8-1-25 11-23 1-9 11-16 20-9 6 6 12 11 19 17-7-8-14-16-21-23-8-9 13-25 21-16 2 2 4 4 6 6 0-1 0-2 0-3 0-4 2-7 6-9 3-2 7-3 10-2 1 0 2 1 3 1-1-3-2-5-4-8-4-10 19-23 24-12 4 9 8 18 12 28-2-8-5-17-7-25-3-10 7-17 15-15 3-11 23-14 26 0 2 10 5 20 7 29-2-13-4-26-7-40-3-16 22-22 26-6 0 0 0 1 0 1 0-2 0-4 0-6 0-9 8-13 15-12 2-13 25-11 26 4 0 14 1 28 1 42 0 8 1 16 1 24 0 8 1 16 1 24 0 1 0 2 0 3l181 303 7 13 7 11-3 2h0l-180 195z m-537-44h-28c-5 0-9-4-9-8v-106c0-4-5-8-10-8h-1c-5 0-10 4-10 8v106c0 4-4 8-9 8h-28c-6 0-10 3-10 8 0 4 4 7 10 7h95c6 0 10-3 10-7 0-5-4-8-10-8z m105-122h-68c-5 0-10 4-10 8v121c0 4 5 8 10 8h64c6 0 10-3 10-7 0-4-4-8-10-8h-44c-5 0-10-4-10-8v-27c0-4 5-8 10-8h41c5 0 10-3 10-7 0-5-5-8-10-8h-41c-5 0-10-4-10-8v-33c0-5 5-8 10-8h48c5 0 10-4 10-8 0-4-5-7-10-7z m144 0h-2c-5 0-11 3-13 8l-10 27c-2 4-8 8-13 8h-36c-5 0-11-4-12-8l-10-27c-2-5-8-8-13-8h-2c-5 0-8 3-6 8l46 121c2 4 8 8 13 8h5c5 0 11-4 13-8l47-121c1-5-2-8-7-8z m176 0h0c-6 0-10 4-10 8l-4 52c-1 16-2 35-2 51 0 5-1 5-3 0-5-13-11-28-17-44l-24-58c-2-5-7-8-11-8-4 0-9 3-11 8l-22 57c-6 16-11 31-16 45-1 5-2 5-2 0-1-16-2-35-3-52l-4-51c0-4-5-8-10-8-5 0-9 4-9 8l10 121c0 4 5 8 10 8h6c6 0 11-3 13-8l23-58c5-14 10-26 14-38 1-5 3-5 5 0 4 11 8 24 14 38l24 58c2 5 8 8 13 8h6c6 0 10-4 11-8l8-121c0-4-4-8-9-8z m-224 96c-2 6-4 12-5 17-2 5-4 5-5 0-2-5-4-11-6-16l-12-32c-2-5 1-8 6-8h28c5 0 8 3 6 8l-12 31z" horiz-adv-x="1000" />

<glyph glyph-name="football-stats-graphic" unicode="&#xe81d;" d="M162 30l22 31 7-10 46-64 151 210 31 43 10-13 64-89 142 198c12 16 8 39-9 51-16 12-39 8-51-8l-67-93-15-22-5 7-69 95-182-253-53 74-110-154v701h-74v-833h906v73h-784l40 56z m620 769c-120 0-218-98-218-218 0-120 98-218 218-218 120 0 218 98 218 218 0 120-98 218-218 218z m132-276c-7 3-15 6-24 6-31 0-56-25-56-56 0-9 2-17 6-25-18-7-37-12-58-12-21 0-40 5-58 13 3 7 6 15 6 24 0 31-25 56-56 56-9 0-17-3-25-6-7 18-12 37-12 58 0 21 5 40 12 58 8-4 16-6 25-6 31 0 56 25 56 56 0 9-3 17-6 24 18 8 37 13 58 13 21 0 40-5 58-13-4-7-6-15-6-24 0-31 25-56 56-56 9 0 17 2 24 6 8-18 13-37 13-58 0-21-5-41-13-58z m-132 113c31 0 56-24 56-55 0-31-25-56-56-56-31 0-56 25-56 56 0 31 25 55 56 55z" horiz-adv-x="1000" />

<glyph glyph-name="camera-alt" unicode="&#xe81e;" d="M518 386q0 8-5 13t-13 5q-37 0-63-27t-26-63q0-7 5-12t13-6 12 6 5 12q0 23 16 38t38 16q8 0 13 5t5 13z m125-73q0-59-42-101t-101-42-101 42-42 101 42 101 101 42 101-42 42-101z m-572-320h858v71h-858v-71z m643 320q0 89-62 152t-152 63-151-63-63-152 63-151 151-63 152 63 62 151z m-571 358h214v72h-214v-72z m-72-107h858v143h-462l-36-71h-360v-72z m929 143v-714q0-30-21-51t-50-21h-858q-29 0-50 21t-21 51v714q0 30 21 51t50 21h858q29 0 50-21t21-51z" horiz-adv-x="1000" />

<glyph glyph-name="mail" unicode="&#xe81f;" d="M929 11v428q-18-20-39-36-149-115-238-189-28-24-46-37t-48-28-57-13h-2q-26 0-57 13t-48 28-46 37q-88 74-238 189-21 16-39 36v-428q0-7 6-13t12-5h822q7 0 12 5t6 13z m0 586v14t-1 7-1 7-3 5-5 4-8 2h-822q-7 0-12-6t-6-12q0-94 83-159 107-84 223-176 4-3 20-17t25-21 25-17 28-16 24-5h2q11 0 24 5t28 16 25 17 25 21 20 17q116 92 224 176 30 24 56 65t26 73z m71 21v-607q0-37-26-63t-63-27h-822q-36 0-63 27t-26 63v607q0 37 26 63t63 26h822q37 0 63-26t26-63z" horiz-adv-x="1000" />

<glyph glyph-name="location" unicode="&#xe820;" d="M429 493q0 59-42 101t-101 42-101-42-42-101 42-101 101-42 101 42 42 101z m142 0q0-61-18-100l-203-432q-9-18-27-29t-37-11-38 11-26 29l-204 432q-18 39-18 100 0 118 84 202t202 84 202-84 83-202z" horiz-adv-x="571.4" />

<glyph glyph-name="at" unicode="&#xe821;" d="M770 548c16-41 25-87 25-138 0-68-17-133-46-182-39-61-94-92-163-92-27 0-52 7-70 21-12 9-23 21-30 36-26-33-68-55-113-55-52 0-95 19-123 58-27 35-41 84-41 141s16 110 49 148c33 41 82 63 141 63 35 0 67-15 90-37l7 26 85 0-17-259c-1-21 1-36 9-43 3-5 10-8 20-8 76 0 102 123 102 183 0 72-24 132-67 176-50 51-122 76-209 76-84 0-158-26-214-76-65-59-101-143-101-245 0-86 31-165 85-221 52-53 122-82 205-82 95 0 167 14 241 47l15 7 0-96-6-3c-69-34-150-50-251-50-108 0-200 33-269 97-81 73-124 183-124 308 0 119 40 220 116 294 38 36 83 65 133 84 52 21 109 31 169 31 113 0 215-37 283-106 30-29 54-64 69-103z m-384-317c30 0 54 14 69 40 14 25 18 61 18 85 0 31-7 56-17 74-13 20-33 28-60 28-28 0-50-12-63-38-13-22-19-53-19-83 0-32 7-106 72-106z" horiz-adv-x="795" />

<glyph glyph-name="thumbs-up" unicode="&#xe822;" d="M143 100q0 15-11 25t-25 11-25-11-11-25 11-25 25-11 25 11 11 25z m643 321q0 29-22 50t-50 22h-196q0 32 27 89t26 89q0 55-17 81t-72 27q-14-15-21-48t-17-70-33-61q-13-13-43-51-2-3-13-16t-18-23-19-24-22-25-22-19-22-15-20-6h-18v-357h18q7 0 18-1t18-4 21-6 20-7 20-6 16-6q118-41 191-41h67q107 0 107 93 0 15-2 31 16 9 26 30t10 41-10 38q29 28 29 67 0 14-5 31t-14 26q18 1 30 26t12 45z m71 1q0-50-27-91 5-18 5-38 0-43-21-81 1-12 1-24 0-56-33-99 0-78-48-123t-126-45h-72q-54 0-106 13t-121 36q-65 23-77 23h-161q-29 0-50 21t-21 50v357q0 30 21 51t50 21h153q20 13 77 86 32 42 60 72 13 14 19 48t17 70 35 60q22 21 50 21 47 0 84-18t57-57 20-104q0-51-27-107h98q58 0 101-42t42-100z" horiz-adv-x="857.1" />

<glyph glyph-name="calendar" unicode="&#xe823;" d="M71-79h161v161h-161v-161z m197 0h178v161h-178v-161z m-197 197h161v178h-161v-178z m197 0h178v178h-178v-178z m-197 214h161v161h-161v-161z m411-411h179v161h-179v-161z m-214 411h178v161h-178v-161z m428-411h161v161h-161v-161z m-214 197h179v178h-179v-178z m-196 482v161q0 7-6 12t-12 6h-36q-7 0-12-6t-6-12v-161q0-7 6-13t12-5h36q7 0 12 5t6 13z m410-482h161v178h-161v-178z m-214 214h179v161h-179v-161z m214 0h161v161h-161v-161z m18 268v161q0 7-5 12t-13 6h-35q-7 0-13-6t-5-12v-161q0-7 5-13t13-5h35q8 0 13 5t5 13z m215 36v-715q0-29-22-50t-50-21h-786q-29 0-50 21t-21 50v715q0 29 21 50t50 21h72v54q0 37 26 63t63 26h36q37 0 63-26t26-63v-54h214v54q0 37 27 63t63 26h35q37 0 64-26t26-63v-54h71q29 0 50-21t22-50z" horiz-adv-x="928.6" />

<glyph glyph-name="exclamation" unicode="&#xe824;" d="M0 350q0 207 147 354t353 146 354-146 146-354-146-354-354-146-353 146-147 354z m318 402l79-550 207 0 78 550-364 0z m77-696q0-44 31-76t76-32 76 32 31 76-31 76-76 33-76-33-31-76z" horiz-adv-x="1000" />

<glyph glyph-name="dollar" unicode="&#xe825;" d="M0 343c374 0 558 432 931 434 64-139 130-279 195-419-373 0-531-403-931-434-65 140-130 279-195 419z m120-66c43-92 85-182 128-273 106 20 196 73 282 136-49 19-85 59-106 104-24 53-28 110-20 168-86-63-176-117-284-135z m886 147c-43 91-85 183-127 273-106-20-198-73-284-138 50-17 85-59 106-102 24-53 29-110 20-168 87 64 178 116 285 135z m-657-305c-6 13-11 24-18 36-2-1-6-2-10-2 2-14 4-26 7-40 7 1 15 2 21 6z m27 23c4 6 8 13 12 21-14 4-27 7-39 12-1-3-4-7-5-10 10-7 21-16 32-23z m-83-23c5 13 8 24 13 35-3 1-7 4-8 5-9-10-18-19-27-29 7-5 14-10 22-11z m96 80c-1 8-3 15-5 23l-1 0c-12-8-23-14-35-20l0-2c2-2 2-6 2-10 15 3 26 5 39 9z m-139-41c14 5 25 9 38 15-2 4-3 5-3 9-14-2-29-2-42-2 1-7 3-15 7-22z m88 55c7 11 16 22 23 34-6 5-12 8-18 10-5-13-10-25-14-39 2-1 6-4 9-5z m-52-16c3 2 4 6 5 10-10 7-20 16-31 25-6-7-9-12-11-20 12-5 26-10 37-15z m28 22c-1 14-4 26-5 40-8-1-15-4-23-6 4-8 5-11 9-19-4 8-5 11-9 19 7-13 12-25 18-38 4 3 6 3 10 4z m480 236c-14 33-29 63-44 94-7-4-12-6-19-11 15-31 28-63 43-94 7 5 11 8 20 11z m87 43c-13 30-30 61-43 92-8-2-12-5-20-8 15-30 30-62 43-92 9 3 13 4 20 8z m-43-20c-15 32-30 62-45 94-8-4-12-7-19-10 15-30 30-62 44-93 7 3 11 5 20 9z" horiz-adv-x="1126" />

<glyph glyph-name="doc" unicode="&#xe826;" d="M0-25l0 625q0 39 27 66t67 28l31 0 0 62q0 39 27 67t67 27l687 0q39 0 67-27t27-67l0-781q0-53-36-89t-89-36l-750 0q-53 0-89 36t-36 89z m63 0q0-25 18-44t44-19l750 0q25 0 44 19t18 44l0 781q0 14-8 23t-23 8l-687 0q-14 0-23-8t-8-23l0-750q0-13-9-22t-23-9-22 9-9 22l0 625-31 0q-14 0-23-9t-8-22l0-625z m187 16q0 15 16 15l250 0q15 0 15-15t-15-16l-250 0q-16 0-16 16z m0 93q0 16 16 16l250 0q15 0 15-16t-15-15l-250 0q-16 0-16 15z m0 94q0 16 16 16l250 0q15 0 15-16 0-6-5-11t-10-4l-250 0q-16 0-16 15z m0 94q0 16 16 16l593 0q16 0 16-16t-16-16l-593 0q-16 0-16 16z m0 94q0 15 16 15l593 0q16 0 16-15t-16-16l-593 0q-16 0-16 16z m0 109l0 219q0 13 9 22t22 9l219 0q14 0 22-9t9-22l0-219q0-14-9-22t-22-9l-219 0q-13 0-22 9t-9 22z m63 31l156 0 0 156-156 0 0-156z m281-515q0 15 15 15l250 0q16 0 16-15t-16-16l-250 0q-15 0-15 16z m0 93q0 16 15 16l250 0q16 0 16-16t-16-15l-250 0q-15 0-15 15z m0 94q0 16 15 16l250 0q16 0 16-16 0-6-5-11t-11-4l-250 0q-15 0-15 15z m0 281q0 16 15 16l250 0q16 0 16-16t-16-15l-250 0q-15 0-15 15z m0 94q0 16 15 16l250 0q16 0 16-16t-16-15l-250 0q-15 0-15 15z m0 94q0 15 15 15l250 0q16 0 16-15t-16-16l-250 0q-15 0-15 16z" horiz-adv-x="1000" />

<glyph glyph-name="clock" unicode="&#xe827;" d="M460 810q190 0 325-135t135-325-135-325-325-135-325 135-135 325 135 325 325 135z m0-820q150 0 255 106t105 254q0 150-105 255t-255 105q-148 0-254-105t-106-255q0-148 106-254t254-106z m36 620l0-244 150-150-50-50-170 170 0 274 70 0z" horiz-adv-x="920" />

<glyph glyph-name="back-in-time" unicode="&#xe828;" d="M532 760q170 0 289-120t119-290-119-290-289-120q-138 0-252 88l70 76q82-60 182-60 126 0 216 90t90 216q0 128-90 218t-216 90q-124 0-213-86t-93-210l142 0-184-206-184 206 124 0q4 166 123 282t285 116z m-36-190l70 0 0-204 130-130-50-50-150 150 0 234z" horiz-adv-x="940" />

<glyph glyph-name="phone-squared" unicode="&#xf098;" d="M714 184q0 6-1 9t-10 9-22 14-27 15-25 14-16 9q-3 1-11 7t-14 8-11 3q-9 0-21-12t-22-25-21-25-19-11q-4 0-9 2t-9 3-9 6-8 4q-55 31-95 71t-71 95q-1 2-5 8t-5 9-4 9-2 9q0 8 12 19t25 22 25 22 11 20q0 6-2 12t-9 14-7 10q-2 4-8 16t-14 25-15 27-14 23-9 10-9 1q-27 0-56-13-26-11-45-52t-19-73q0-9 1-19t3-17 5-18 6-17 7-18 6-17q33-92 121-179t178-121q4-1 17-6t19-7 16-5 19-5 17-3 19-2q31 0 72 19t53 45q12 30 12 56z m143 434v-536q0-66-47-113t-114-48h-535q-67 0-114 48t-47 113v536q0 66 47 113t114 48h535q67 0 114-48t47-113z" horiz-adv-x="857.1" />

<glyph glyph-name="github-circled" unicode="&#xf09b;" d="M429 779q116 0 215-58t156-156 57-215q0-140-82-252t-211-155q-15-3-22 4t-7 17q0 1 0 43t0 75q0 54-29 79 32 3 57 10t53 22 45 37 30 58 11 84q0 67-44 115 21 51-4 114-16 5-46-6t-51-25l-21-13q-52 15-107 15t-108-15q-8 6-23 15t-47 22-47 7q-25-63-5-114-44-48-44-115 0-47 12-83t29-59 45-37 52-22 57-10q-21-20-27-58-12-5-25-8t-32-3-36 12-31 35q-11 18-27 29t-28 14l-11 1q-12 0-16-2t-3-7 5-8 7-6l4-3q12-6 24-21t18-29l6-13q7-21 24-34t37-17 39-3 31 1l13 3q0-22 0-50t1-30q0-10-8-17t-22-4q-129 43-211 155t-82 252q0 117 58 215t155 156 216 58z m-267-616q2 4-3 7-6 1-8-1-1-4 4-7 5-3 7 1z m18-19q4 3-1 9-6 5-9 2-4-3 1-9 5-6 9-2z m16-25q6 4 0 11-4 7-9 3-5-3 0-10t9-4z m24-23q4 4-2 10-7 7-11 2-5-5 2-11 6-6 11-1z m32-14q1 6-8 9-8 2-10-4t7-9q8-3 11 4z m35-3q0 7-10 6-9 0-9-6 0-7 10-6 9 0 9 6z m32 5q-1 7-10 5-9-1-8-8t10-4 8 7z" horiz-adv-x="857.1" />

<glyph glyph-name="table" unicode="&#xf0ce;" d="M286 82v107q0 8-5 13t-13 5h-179q-7 0-12-5t-6-13v-107q0-8 6-13t12-5h179q8 0 13 5t5 13z m0 214v108q0 7-5 12t-13 5h-179q-7 0-12-5t-6-12v-108q0-7 6-12t12-5h179q8 0 13 5t5 12z m285-214v107q0 8-5 13t-12 5h-179q-8 0-13-5t-5-13v-107q0-8 5-13t13-5h179q7 0 12 5t5 13z m-285 429v107q0 8-5 13t-13 5h-179q-7 0-12-5t-6-13v-107q0-8 6-13t12-5h179q8 0 13 5t5 13z m285-215v108q0 7-5 12t-12 5h-179q-8 0-13-5t-5-12v-108q0-7 5-12t13-5h179q7 0 12 5t5 12z m286-214v107q0 8-5 13t-13 5h-178q-8 0-13-5t-5-13v-107q0-8 5-13t13-5h178q8 0 13 5t5 13z m-286 429v107q0 8-5 13t-12 5h-179q-8 0-13-5t-5-13v-107q0-8 5-13t13-5h179q7 0 12 5t5 13z m286-215v108q0 7-5 12t-13 5h-178q-8 0-13-5t-5-12v-108q0-7 5-12t13-5h178q8 0 13 5t5 12z m0 215v107q0 8-5 13t-13 5h-178q-8 0-13-5t-5-13v-107q0-8 5-13t13-5h178q8 0 13 5t5 13z m72 178v-607q0-37-27-63t-63-26h-750q-36 0-63 26t-26 63v607q0 37 26 63t63 27h750q37 0 63-27t27-63z" horiz-adv-x="928.6" />

<glyph glyph-name="soccer-ball" unicode="&#xf1e3;" d="M340 395l160 116 160-116-61-188h-198z m160 455q102 0 194-40t160-106 106-160 40-194-40-194-106-160-160-106-194-40-194 40-160 106-106 160-40 194 40 194 106 160 160 106 194 40z m345-753q84 113 84 253v2l-57-50-134 125 35 180 75-6q-84 115-217 157l29-69-160-89-160 89 29 69q-133-42-217-157l76 6 34-180-134-125-57 50v-2q0-140 84-253l16 73 182-22 78-166-65-39q65-22 134-22t134 22l-65 39 78 166 182 22z" horiz-adv-x="1000" />

<glyph glyph-name="facebook-squared" unicode="&#xf308;" d="M696 779q67 0 114-48t47-113v-536q0-66-47-113t-114-48h-104v333h111l16 129h-127v83q0 31 13 46t51 16l68 1v115q-35 5-100 5-75 0-121-44t-45-127v-95h-112v-129h112v-333h-297q-67 0-114 48t-47 113v536q0 66 47 113t114 48h535z" horiz-adv-x="857.1" />

<glyph glyph-name="linkedin" unicode="&#xf318;" d="M204 698q0-40-29-68t-75-28q-44 0-72 28t-28 68q0 42 28 69t74 27 73-27 29-69z m-198-790l0 618 192 0 0-618-192 0z m306 420q0 86-4 198l166 0 10-86 4 0q60 100 190 100 100 0 161-67t61-199l0-366-192 0 0 342q0 134-98 134-70 0-98-72-6-12-6-48l0-356-194 0 0 420z" horiz-adv-x="900" />
</font>
</defs>
</svg>
